<mxfile host="app.diagrams.net" modified="2023-10-18T14:54:01.737Z" agent="Mozilla/5.0 (Windows NT 10.0; Win64; x64) AppleWebKit/537.36 (KHTML, like Gecko) Chrome/116.0.0.0 Safari/537.36 OPR/102.0.0.0" etag="rV2C-Zy_vtUNCKHopMD2" version="22.0.4" type="github">
  <diagram name="Página-1" id="TI-5z2R9nweyuSItwT9W">
    <mxGraphModel dx="2220" dy="797" grid="1" gridSize="10" guides="1" tooltips="1" connect="1" arrows="1" fold="1" page="1" pageScale="1" pageWidth="827" pageHeight="1169" math="0" shadow="0">
      <root>
        <mxCell id="0" />
        <mxCell id="1" parent="0" />
        <mxCell id="O3ZrYwpj5HraJYsKJBxS-39" style="edgeStyle=orthogonalEdgeStyle;rounded=0;orthogonalLoop=1;jettySize=auto;html=1;exitX=0.5;exitY=1;exitDx=0;exitDy=0;entryX=0.5;entryY=0;entryDx=0;entryDy=0;" edge="1" parent="1" source="O3ZrYwpj5HraJYsKJBxS-1" target="O3ZrYwpj5HraJYsKJBxS-37">
          <mxGeometry relative="1" as="geometry" />
        </mxCell>
        <mxCell id="O3ZrYwpj5HraJYsKJBxS-1" value="Start" style="rounded=1;whiteSpace=wrap;html=1;" vertex="1" parent="1">
          <mxGeometry x="90" y="140" width="160" height="90" as="geometry" />
        </mxCell>
        <mxCell id="O3ZrYwpj5HraJYsKJBxS-13" value="Requisitos da senha:&lt;br&gt;+8 caracteres&lt;br&gt;pelo menos 1 caracter alfanumerico&lt;br&gt;conjunto de numeros" style="whiteSpace=wrap;html=1;rounded=0;" vertex="1" parent="1">
          <mxGeometry x="450" y="683.75" width="150" height="82.5" as="geometry" />
        </mxCell>
        <mxCell id="O3ZrYwpj5HraJYsKJBxS-22" value="E-mail comercial ou pessoal" style="whiteSpace=wrap;html=1;rounded=0;" vertex="1" parent="1">
          <mxGeometry x="290" y="670" width="150" height="50" as="geometry" />
        </mxCell>
        <mxCell id="O3ZrYwpj5HraJYsKJBxS-29" value="Processo de Login" style="rhombus;whiteSpace=wrap;html=1;" vertex="1" parent="1">
          <mxGeometry x="-10" y="1260" width="220" height="90" as="geometry" />
        </mxCell>
        <mxCell id="O3ZrYwpj5HraJYsKJBxS-31" value="&lt;font style=&quot;font-size: 14px;&quot;&gt;precisa salvar as informações os em disco, seja banco de dados, xml, csv&lt;/font&gt;" style="whiteSpace=wrap;html=1;" vertex="1" parent="1">
          <mxGeometry x="360" y="470" width="200" height="120" as="geometry" />
        </mxCell>
        <mxCell id="O3ZrYwpj5HraJYsKJBxS-49" style="edgeStyle=orthogonalEdgeStyle;rounded=0;orthogonalLoop=1;jettySize=auto;html=1;entryX=0.5;entryY=0;entryDx=0;entryDy=0;" edge="1" parent="1" source="O3ZrYwpj5HraJYsKJBxS-33" target="O3ZrYwpj5HraJYsKJBxS-40">
          <mxGeometry relative="1" as="geometry" />
        </mxCell>
        <mxCell id="O3ZrYwpj5HraJYsKJBxS-54" style="edgeStyle=orthogonalEdgeStyle;rounded=0;orthogonalLoop=1;jettySize=auto;html=1;exitX=1;exitY=0.5;exitDx=0;exitDy=0;entryX=0;entryY=0.5;entryDx=0;entryDy=0;" edge="1" parent="1" source="O3ZrYwpj5HraJYsKJBxS-33" target="O3ZrYwpj5HraJYsKJBxS-31">
          <mxGeometry relative="1" as="geometry" />
        </mxCell>
        <mxCell id="O3ZrYwpj5HraJYsKJBxS-33" value="Inicie o Cadastro" style="rounded=0;whiteSpace=wrap;html=1;" vertex="1" parent="1">
          <mxGeometry x="80" y="500" width="180" height="60" as="geometry" />
        </mxCell>
        <mxCell id="O3ZrYwpj5HraJYsKJBxS-38" style="edgeStyle=orthogonalEdgeStyle;rounded=0;orthogonalLoop=1;jettySize=auto;html=1;exitX=0.5;exitY=1;exitDx=0;exitDy=0;entryX=0.5;entryY=0;entryDx=0;entryDy=0;" edge="1" parent="1" source="O3ZrYwpj5HraJYsKJBxS-37" target="O3ZrYwpj5HraJYsKJBxS-33">
          <mxGeometry relative="1" as="geometry" />
        </mxCell>
        <mxCell id="O3ZrYwpj5HraJYsKJBxS-37" value="Para Cadastros:&lt;br&gt;String:&amp;nbsp;&lt;br&gt;Nome Completo, e-mail, senha&lt;br&gt;&lt;br&gt;Int:&amp;nbsp;&lt;br&gt;Número de telefone,CPF e CEP, Endereço" style="whiteSpace=wrap;html=1;aspect=fixed;" vertex="1" parent="1">
          <mxGeometry x="70" y="260" width="200" height="200" as="geometry" />
        </mxCell>
        <mxCell id="O3ZrYwpj5HraJYsKJBxS-40" value="List" style="swimlane;fontStyle=0;childLayout=stackLayout;horizontal=1;startSize=30;horizontalStack=0;resizeParent=1;resizeParentMax=0;resizeLast=0;collapsible=1;marginBottom=0;whiteSpace=wrap;html=1;" vertex="1" parent="1">
          <mxGeometry x="90" y="620" width="160" height="250" as="geometry" />
        </mxCell>
        <mxCell id="O3ZrYwpj5HraJYsKJBxS-41" value="Nome Completo" style="text;strokeColor=none;fillColor=none;align=left;verticalAlign=middle;spacingLeft=4;spacingRight=4;overflow=hidden;points=[[0,0.5],[1,0.5]];portConstraint=eastwest;rotatable=0;whiteSpace=wrap;html=1;" vertex="1" parent="O3ZrYwpj5HraJYsKJBxS-40">
          <mxGeometry y="30" width="160" height="30" as="geometry" />
        </mxCell>
        <mxCell id="O3ZrYwpj5HraJYsKJBxS-42" value="E-mail" style="text;strokeColor=none;fillColor=none;align=left;verticalAlign=middle;spacingLeft=4;spacingRight=4;overflow=hidden;points=[[0,0.5],[1,0.5]];portConstraint=eastwest;rotatable=0;whiteSpace=wrap;html=1;" vertex="1" parent="O3ZrYwpj5HraJYsKJBxS-40">
          <mxGeometry y="60" width="160" height="30" as="geometry" />
        </mxCell>
        <mxCell id="O3ZrYwpj5HraJYsKJBxS-45" value="Senha" style="text;strokeColor=none;fillColor=none;align=left;verticalAlign=middle;spacingLeft=4;spacingRight=4;overflow=hidden;points=[[0,0.5],[1,0.5]];portConstraint=eastwest;rotatable=0;whiteSpace=wrap;html=1;" vertex="1" parent="O3ZrYwpj5HraJYsKJBxS-40">
          <mxGeometry y="90" width="160" height="30" as="geometry" />
        </mxCell>
        <mxCell id="O3ZrYwpj5HraJYsKJBxS-46" value="Número de telefone" style="text;strokeColor=none;fillColor=none;align=left;verticalAlign=middle;spacingLeft=4;spacingRight=4;overflow=hidden;points=[[0,0.5],[1,0.5]];portConstraint=eastwest;rotatable=0;whiteSpace=wrap;html=1;" vertex="1" parent="O3ZrYwpj5HraJYsKJBxS-40">
          <mxGeometry y="120" width="160" height="30" as="geometry" />
        </mxCell>
        <mxCell id="O3ZrYwpj5HraJYsKJBxS-47" value="Endereço" style="text;strokeColor=none;fillColor=none;align=left;verticalAlign=middle;spacingLeft=4;spacingRight=4;overflow=hidden;points=[[0,0.5],[1,0.5]];portConstraint=eastwest;rotatable=0;whiteSpace=wrap;html=1;" vertex="1" parent="O3ZrYwpj5HraJYsKJBxS-40">
          <mxGeometry y="150" width="160" height="30" as="geometry" />
        </mxCell>
        <mxCell id="O3ZrYwpj5HraJYsKJBxS-43" value="CEP" style="text;strokeColor=none;fillColor=none;align=left;verticalAlign=middle;spacingLeft=4;spacingRight=4;overflow=hidden;points=[[0,0.5],[1,0.5]];portConstraint=eastwest;rotatable=0;whiteSpace=wrap;html=1;" vertex="1" parent="O3ZrYwpj5HraJYsKJBxS-40">
          <mxGeometry y="180" width="160" height="40" as="geometry" />
        </mxCell>
        <mxCell id="O3ZrYwpj5HraJYsKJBxS-48" value="CPF&lt;span style=&quot;white-space: pre;&quot;&gt;&#x9;&lt;/span&gt;" style="text;strokeColor=none;fillColor=none;align=left;verticalAlign=middle;spacingLeft=4;spacingRight=4;overflow=hidden;points=[[0,0.5],[1,0.5]];portConstraint=eastwest;rotatable=0;whiteSpace=wrap;html=1;" vertex="1" parent="O3ZrYwpj5HraJYsKJBxS-40">
          <mxGeometry y="220" width="160" height="30" as="geometry" />
        </mxCell>
        <mxCell id="O3ZrYwpj5HraJYsKJBxS-52" style="edgeStyle=orthogonalEdgeStyle;rounded=0;orthogonalLoop=1;jettySize=auto;html=1;exitX=1;exitY=0.5;exitDx=0;exitDy=0;entryX=0;entryY=0.5;entryDx=0;entryDy=0;" edge="1" parent="1" source="O3ZrYwpj5HraJYsKJBxS-45" target="O3ZrYwpj5HraJYsKJBxS-13">
          <mxGeometry relative="1" as="geometry" />
        </mxCell>
        <mxCell id="O3ZrYwpj5HraJYsKJBxS-53" style="edgeStyle=orthogonalEdgeStyle;rounded=0;orthogonalLoop=1;jettySize=auto;html=1;exitX=1;exitY=0.5;exitDx=0;exitDy=0;entryX=0;entryY=0.5;entryDx=0;entryDy=0;" edge="1" parent="1" source="O3ZrYwpj5HraJYsKJBxS-42" target="O3ZrYwpj5HraJYsKJBxS-22">
          <mxGeometry relative="1" as="geometry" />
        </mxCell>
      </root>
    </mxGraphModel>
  </diagram>
</mxfile>
